<?xml version="1.0" encoding="UTF-8" standalone="no"?>
<!-- Created with Inkscape (http://www.inkscape.org/) -->

<svg
   xmlns:dc="http://purl.org/dc/elements/1.1/"
   xmlns:cc="http://creativecommons.org/ns#"
   xmlns:rdf="http://www.w3.org/1999/02/22-rdf-syntax-ns#"
   xmlns:svg="http://www.w3.org/2000/svg"
   xmlns="http://www.w3.org/2000/svg"
   version="1.0"
   width="200.0016"
   height="43.261864"
   viewBox="0 0 160.00128 34.609486"
   id="svg3101">
  <defs
     id="defs3177" />
  <metadata
     id="metadata3103">
Created by potrace 1.11, written by Peter Selinger 2001-2013
<rdf:RDF>
  <cc:Work
     rdf:about="">
    <dc:format>image/svg+xml</dc:format>
    <dc:type
       rdf:resource="http://purl.org/dc/dcmitype/StillImage" />
    <dc:title></dc:title>
  </cc:Work>
</rdf:RDF>
</metadata>
  <g
     transform="matrix(0.01033857,0,0,-0.01033857,-30.53857,47.254553)"
     id="g3105"
     style="fill:#000000;stroke:none">
    <path
       d="m 9295,3878 c -152,-381 -289,-711 -304,-733 -35,-53 -83,-83 -142,-91 l -49,-7 0,-38 0,-39 285,0 285,0 0,39 0,38 -75,5 c -57,4 -83,11 -109,29 -71,48 -72,90 -9,267 l 48,132 310,0 311,0 67,-173 c 37,-95 67,-183 67,-195 0,-35 -43,-55 -131,-60 l -79,-5 0,-38 0,-39 310,0 310,0 0,40 0,40 -45,0 c -49,0 -90,17 -116,46 -9,11 -75,170 -147,354 -72,184 -194,497 -272,695 -180,462 -162,425 -204,425 l -34,0 -277,-692 z m 389,17 124,-320 -265,-3 c -146,-1 -268,0 -271,3 -4,4 185,484 251,635 17,40 20,43 28,25 5,-11 65,-164 133,-340 z"
       id="path3107" />
    <path
       d="m 3438,4532 -408,-2 0,-40 0,-40 100,0 c 94,0 103,-2 125,-25 l 25,-24 0,-651 0,-651 -25,-24 c -22,-23 -31,-25 -125,-25 l -100,0 0,-41 0,-40 468,4 c 518,4 515,3 658,74 192,95 318,287 355,542 16,114 7,323 -20,422 -62,238 -238,437 -435,494 -90,26 -178,30 -618,27 z m 519,-109 c 147,-59 234,-182 280,-393 26,-121 26,-479 0,-595 -46,-210 -154,-324 -351,-370 -37,-9 -113,-15 -192,-15 -118,0 -134,2 -158,21 l -26,20 0,660 c 0,656 0,659 21,680 20,20 29,21 197,17 150,-4 185,-7 229,-25 z"
       id="path3109" />
    <path
       d="m 4680,4496 c 0,-43 2,-46 25,-46 48,0 93,-27 113,-67 15,-29 320,-980 448,-1395 l 18,-58 41,0 42,0 169,565 c 93,311 172,565 175,565 4,0 10,-12 14,-27 3,-16 81,-269 174,-563 l 168,-535 39,-3 39,-3 199,663 c 109,365 210,689 224,721 36,82 107,137 180,137 13,0 18,80 5,80 -5,0 -116,1 -248,2 l -240,1 -3,-42 -3,-41 55,0 c 47,0 61,-4 88,-29 32,-28 33,-33 33,-103 0,-65 -15,-122 -135,-520 -74,-247 -137,-448 -141,-448 -10,0 -330,1030 -327,1053 5,32 44,47 131,47 l 77,0 0,40 c 0,25 -5,40 -12,40 -7,0 -153,1 -325,3 l -312,2 -5,-27 c -10,-50 -1,-56 89,-60 63,-2 88,-7 103,-21 22,-20 72,-145 72,-180 0,-23 -259,-887 -269,-899 -11,-12 -344,1046 -337,1069 8,25 33,33 104,33 l 52,0 0,40 0,40 -229,0 c -126,0 -243,3 -260,6 l -31,7 0,-47 z"
       id="path3111" />
    <path
       d="m 6841,4525 c -3,-5 -6,-23 -6,-40 l 0,-30 108,-5 c 93,-4 111,-8 123,-24 12,-17 14,-124 14,-662 0,-450 -3,-650 -11,-667 -16,-36 -50,-47 -144,-47 -89,0 -94,-3 -87,-52 l 4,-28 648,0 648,0 6,68 c 3,37 10,155 16,262 6,107 12,212 14,233 4,37 4,37 -34,37 l -38,0 -22,-92 c -58,-240 -148,-361 -302,-410 -49,-15 -93,-18 -238,-18 -164,0 -179,2 -204,21 l -26,20 0,660 c 0,781 -17,699 145,699 l 105,0 0,43 0,42 -356,0 c -226,0 -358,-4 -363,-10 z"
       id="path3113" />
    <path
       d="m 14310,4362 c -24,-3 -26,-8 -37,-85 -15,-109 -45,-185 -95,-242 -41,-46 -123,-95 -160,-95 -14,0 -18,-9 -18,-40 l 0,-40 89,0 89,0 1,-366 c 1,-411 2,-418 73,-480 49,-43 99,-59 188,-59 58,1 86,6 122,24 61,29 128,104 151,167 20,56 38,185 28,197 -4,4 -22,4 -39,1 -28,-6 -32,-11 -32,-38 0,-46 -25,-130 -50,-170 -60,-98 -194,-100 -247,-4 -16,30 -18,65 -18,378 l 0,345 160,3 160,2 -3,50 -4,50 -159,0 -159,0 0,199 c 0,110 -3,201 -7,203 -5,2 -19,2 -33,0 z"
       id="path3115" />
    <path
       d="m 11331,3994 c -19,-8 -54,-30 -77,-50 l -43,-35 -50,26 c -191,96 -430,63 -556,-77 -53,-60 -75,-121 -75,-212 0,-104 50,-196 138,-254 30,-20 28,-29 -11,-41 -42,-14 -103,-65 -123,-103 -20,-39 -20,-118 1,-162 18,-38 88,-91 136,-101 31,-7 40,-25 12,-25 -31,0 -139,-57 -161,-84 -11,-15 -26,-42 -32,-61 -23,-70 28,-162 114,-208 l 41,-22 -3842,-3 -3843,-2 0,-55 0,-55 7720,0 7720,0 0,55 0,55 -3607,2 -3608,3 47,22 c 67,31 142,104 168,165 33,77 26,180 -16,240 -37,53 -108,93 -190,107 -33,6 -156,11 -272,11 -116,0 -222,4 -236,10 -39,14 -61,54 -50,92 18,62 46,72 232,79 150,5 174,9 232,33 216,89 296,270 201,456 l -33,64 27,23 c 38,33 53,29 75,-21 30,-72 81,-86 131,-37 33,34 38,75 14,121 -29,56 -111,76 -184,44 z m -316,-93 c 92,-41 142,-146 132,-276 -3,-39 -13,-89 -22,-111 -79,-189 -332,-174 -391,24 -18,57 -17,185 0,235 44,121 170,179 281,128 z m 163,-956 c 83,-25 131,-97 111,-169 -13,-46 -84,-108 -151,-131 -35,-12 -93,-20 -172,-23 -152,-5 -229,13 -287,68 -35,33 -39,42 -39,84 0,104 74,163 235,186 78,11 241,3 303,-15 z"
       id="path3117" />
    <path
       d="m 11980,3974 c -157,-42 -278,-174 -325,-354 -23,-86 -23,-249 0,-327 41,-141 137,-257 261,-315 56,-26 82,-32 164,-36 184,-9 318,58 421,210 55,80 55,84 20,102 -16,9 -32,16 -35,16 -2,0 -16,-20 -30,-44 -38,-65 -114,-136 -174,-164 -42,-19 -71,-24 -129,-25 -65,0 -83,5 -141,34 -47,24 -75,47 -99,80 -38,53 -73,175 -73,253 l 0,51 322,-2 c 178,-1 337,1 354,4 l 31,5 -4,56 c -14,182 -86,326 -200,401 -99,66 -242,87 -363,55 z m 207,-70 c 53,-19 116,-88 137,-151 23,-67 21,-164 -3,-194 -19,-24 -21,-24 -252,-27 l -232,-3 6,73 c 12,169 86,282 205,314 50,13 73,11 139,-12 z"
       id="path3119" />
    <path
       d="m 12875,3973 c -27,-1 -78,-5 -112,-9 l -63,-6 0,-34 c 0,-33 1,-34 40,-34 22,0 56,-6 75,-14 64,-27 65,-35 65,-424 0,-413 5,-393 -104,-400 l -66,-4 0,-39 0,-39 260,0 260,0 0,39 0,39 -66,4 c -106,7 -104,1 -104,293 0,218 2,250 21,311 17,56 31,77 77,124 104,103 238,109 328,16 64,-67 69,-98 69,-418 0,-274 0,-278 -22,-300 -18,-17 -37,-23 -88,-26 l -65,-4 0,-39 0,-39 265,0 265,0 0,40 0,40 -54,0 c -65,0 -100,12 -112,37 -5,10 -11,162 -14,338 -5,319 -5,320 -31,375 -34,74 -79,123 -137,151 -39,19 -63,23 -142,23 -134,0 -192,-24 -287,-119 -81,-80 -74,-82 -88,25 -14,105 -11,100 -68,98 -29,-1 -74,-3 -102,-5 z"
       id="path3121" />
    <path
       d="m 15015,3970 c -60,-4 -123,-8 -138,-9 -26,-1 -28,-4 -25,-38 3,-38 4,-38 54,-44 28,-4 59,-11 71,-17 47,-26 48,-28 53,-356 7,-356 12,-385 92,-463 64,-63 126,-87 223,-88 72,0 88,4 149,34 40,19 96,60 136,97 37,35 70,64 73,64 3,0 9,-41 13,-90 l 7,-91 136,2 c 75,1 151,4 169,6 29,5 32,9 32,39 l 0,34 -51,0 c -58,0 -102,21 -118,57 -7,16 -11,165 -11,449 l 0,425 -102,-6 c -57,-3 -136,-8 -175,-11 l -73,-6 0,-39 c 0,-37 1,-39 33,-39 54,0 106,-20 124,-47 13,-20 18,-57 21,-182 5,-187 -9,-343 -36,-404 -77,-174 -280,-232 -398,-113 -26,26 -46,57 -53,83 -8,27 -12,172 -14,400 l -2,358 -40,1 c -22,1 -89,-2 -150,-6 z"
       id="path3123" />
    <path
       d="m 16345,3970 c -60,-4 -125,-8 -142,-9 -29,-1 -33,-4 -33,-28 0,-42 10,-50 69,-55 45,-5 60,-11 83,-37 l 28,-31 0,-268 c 0,-352 17,-434 106,-512 62,-54 118,-74 209,-75 74,0 88,3 155,37 42,21 105,64 142,98 l 67,60 6,-57 c 3,-32 8,-73 11,-91 l 5,-33 154,2 c 85,1 160,6 166,10 7,4 13,21 13,38 1,30 0,31 -46,31 -64,0 -94,14 -118,52 -19,32 -20,51 -20,456 l 0,424 -92,-7 c -51,-3 -130,-8 -176,-11 l -83,-6 3,-36 c 3,-37 4,-37 56,-43 61,-8 99,-30 112,-65 17,-44 12,-441 -5,-509 -64,-246 -351,-321 -458,-121 -21,40 -22,51 -25,419 l -3,377 -37,-2 c -20,-1 -86,-5 -147,-8 z"
       id="path3125" />
    <path
       d="m 17670,3970 c -63,-4 -127,-8 -142,-9 -26,-1 -28,-4 -28,-41 l 0,-40 65,0 c 57,0 68,-3 97,-29 l 33,-29 3,-365 3,-365 -27,-21 c -22,-17 -41,-21 -100,-21 l -74,0 0,-40 0,-40 310,0 310,0 0,39 0,39 -101,4 c -139,4 -139,4 -139,190 0,153 14,240 61,381 30,90 77,175 120,214 28,25 96,56 108,49 4,-3 0,-30 -10,-59 -21,-64 -13,-110 26,-147 27,-25 86,-31 123,-11 53,28 74,149 39,217 -52,101 -190,123 -299,48 -61,-43 -133,-161 -179,-299 -13,-37 -14,-25 -17,153 l -2,192 -33,-2 c -17,-1 -84,-5 -147,-8 z"
       id="path3127" />
    <path
       d="m 14530,1985 c -173,-431 -191,-465 -249,-465 -26,0 -31,-4 -31,-25 l 0,-25 159,0 c 150,0 159,1 164,20 3,11 2,20 -1,21 -89,9 -125,30 -130,75 -3,32 43,164 61,177 16,10 318,7 338,-3 8,-5 32,-54 53,-109 44,-116 41,-131 -28,-131 -48,0 -63,-8 -63,-32 0,-17 16,-18 184,-18 176,0 183,1 183,20 0,15 -9,21 -40,26 -21,4 -45,14 -53,23 -12,14 -99,231 -292,729 -74,189 -60,203 -255,-283 z m 223,30 c 36,-93 67,-176 69,-183 2,-10 -31,-13 -150,-15 -83,-1 -152,0 -152,3 0,3 34,89 75,190 41,101 75,187 75,189 0,20 27,-39 83,-184 z"
       id="path3129" />
    <path
       d="m 9128,2373 c -21,-3 -28,-10 -28,-26 0,-18 6,-22 36,-24 20,-1 45,-9 55,-19 18,-16 19,-36 19,-389 0,-404 2,-393 -56,-397 -32,-2 -45,-14 -37,-35 4,-10 39,-13 154,-13 148,0 149,0 149,23 0,19 -5,22 -40,23 -22,0 -46,6 -53,13 -8,8 -12,56 -12,164 0,136 2,156 22,192 40,75 101,110 168,98 35,-7 81,-55 89,-94 3,-17 6,-102 6,-189 0,-175 -2,-180 -64,-183 -30,-2 -36,-6 -36,-24 0,-23 1,-23 155,-23 144,0 155,1 155,18 0,14 -11,21 -47,28 l -48,9 -6,180 c -7,203 -17,250 -60,300 -69,78 -221,66 -303,-24 -11,-12 -23,-21 -27,-21 -4,0 -7,94 -6,210 l 2,210 -80,-2 c -44,0 -92,-3 -107,-5 z"
       id="path3131" />
    <path
       d="m 11158,2363 c -23,-28 -28,-51 -16,-77 15,-34 57,-50 90,-35 68,31 48,129 -27,129 -18,0 -38,-8 -47,-17 z"
       id="path3133" />
    <path
       d="m 12220,2360 c -27,-27 -25,-66 5,-95 30,-30 54,-31 89,-4 50,40 21,119 -44,119 -17,0 -39,-9 -50,-20 z"
       id="path3135" />
    <path
       d="m 2956,2355 c -7,-18 0,-21 68,-29 27,-3 55,-11 62,-17 11,-9 14,-84 14,-388 0,-207 -4,-382 -8,-389 -5,-7 -33,-15 -63,-18 -72,-8 -80,-11 -72,-29 5,-15 36,-16 287,-13 l 282,3 65,32 c 130,64 197,166 221,335 30,211 -68,428 -225,499 -50,23 -62,24 -338,27 -255,3 -287,1 -293,-13 z m 527,-46 c 55,-14 120,-82 145,-151 42,-114 50,-329 16,-450 -21,-75 -75,-138 -145,-167 -64,-28 -224,-35 -252,-12 -16,12 -17,48 -15,395 l 3,380 25,14 c 27,14 153,9 223,-9 z"
       id="path3137" />
    <path
       d="m 6200,2346 c 0,-19 6,-25 27,-28 49,-6 44,8 296,-791 21,-68 42,-93 65,-78 7,4 56,153 109,331 53,178 99,317 102,309 2,-8 48,-153 102,-323 80,-256 100,-311 117,-317 12,-5 24,-4 26,0 3,5 57,181 120,392 64,211 123,399 133,417 17,33 58,62 88,62 9,0 15,9 15,25 l 0,25 -145,0 c -135,0 -145,-1 -145,-19 0,-14 12,-22 44,-30 37,-9 46,-16 55,-43 6,-20 7,-47 2,-68 -18,-75 -154,-520 -158,-516 -10,9 -183,571 -183,592 0,29 8,33 63,35 39,2 46,5 50,26 l 4,23 -188,0 -189,0 0,-23 c 0,-21 5,-23 48,-25 54,-3 75,-21 93,-82 12,-41 11,-45 -110,-435 l -38,-120 -81,250 c -134,417 -129,382 -59,387 31,2 37,6 37,25 0,23 0,23 -150,23 l -150,0 0,-24 z"
       id="path3139" />
    <path
       d="m 10220,2350 c 0,-17 7,-20 44,-20 25,0 56,-4 70,-10 l 26,-10 0,-383 c 0,-285 -3,-386 -12,-395 -7,-7 -24,-12 -39,-12 -55,0 -89,-12 -89,-31 0,-18 15,-19 374,-19 206,0 377,3 379,8 3,4 8,82 12,175 8,163 7,167 -13,167 -16,0 -23,-12 -36,-67 -23,-92 -62,-161 -112,-196 -33,-23 -59,-31 -125,-39 -87,-9 -184,-3 -194,12 -10,15 -5,774 4,783 5,5 36,11 70,14 51,5 61,9 61,24 0,18 -12,19 -210,19 -203,0 -210,-1 -210,-20 z"
       id="path3141" />
    <path
       d="m 8775,2267 c -2,-7 -6,-33 -9,-60 -10,-83 -54,-148 -112,-167 -26,-9 -34,-17 -34,-36 0,-22 4,-24 48,-24 l 47,0 0,-214 c 0,-201 1,-216 21,-243 54,-74 173,-84 243,-20 34,31 61,95 61,145 0,35 -3,43 -17,40 -11,-2 -21,-21 -29,-58 -21,-92 -90,-135 -145,-91 -24,19 -24,22 -27,230 l -3,211 90,0 91,0 0,30 0,30 -90,0 -90,0 0,118 c 0,112 -1,118 -21,119 -11,1 -22,-4 -24,-10 z"
       id="path3143" />
    <path
       d="m 13759,2041 -45,-28 -40,21 c -56,30 -182,29 -240,-2 -119,-62 -148,-195 -63,-287 21,-23 39,-45 39,-47 0,-3 -13,-11 -30,-18 -39,-16 -60,-51 -60,-97 0,-48 22,-81 68,-100 l 36,-15 -39,-14 c -52,-17 -85,-56 -85,-98 0,-45 29,-79 92,-106 75,-32 228,-33 310,-1 168,65 187,257 30,301 -20,5 -98,10 -173,10 -156,0 -176,8 -170,67 2,23 43,35 137,39 177,7 264,74 264,201 0,31 -7,60 -20,81 -16,27 -18,37 -9,48 18,22 37,17 51,-13 15,-31 51,-42 74,-23 20,18 17,67 -6,90 -28,28 -68,25 -121,-9 z m -154,-35 c 64,-27 95,-138 61,-220 -33,-78 -130,-103 -186,-48 -77,77 -58,228 34,268 40,17 49,17 91,0 z m 116,-561 c 34,-18 40,-27 41,-65 2,-81 -132,-131 -279,-106 -90,16 -124,98 -63,150 17,14 45,28 63,30 18,3 43,8 57,10 43,8 151,-4 181,-19 z"
       id="path3145" />
    <path
       d="m 15679,2041 -45,-28 -38,19 c -93,48 -231,28 -298,-43 -73,-77 -72,-186 3,-253 l 39,-36 -29,-15 c -43,-22 -71,-63 -71,-102 0,-48 14,-70 62,-94 l 42,-21 -40,-14 c -71,-24 -102,-85 -71,-141 73,-131 425,-115 504,23 30,52 31,122 1,159 -40,52 -88,65 -240,65 -162,0 -188,7 -188,49 0,42 23,51 136,57 129,6 213,44 249,114 21,41 19,123 -4,169 -15,29 -17,41 -8,50 18,18 35,13 49,-16 15,-31 51,-42 74,-23 20,18 17,67 -6,90 -28,28 -68,25 -121,-9 z m -131,-47 c 75,-49 66,-236 -13,-272 -58,-26 -131,-7 -157,42 -31,57 -25,170 10,209 41,46 108,55 160,21 z m 96,-552 c 68,-39 52,-106 -35,-150 -77,-38 -225,-31 -273,13 -42,39 -29,107 26,136 58,31 229,31 282,1 z"
       id="path3147" />
    <path
       d="m 4110,2040 c -76,-26 -130,-84 -130,-140 0,-68 55,-101 108,-64 26,18 29,64 6,99 -19,29 -12,43 32,61 71,30 162,7 189,-47 8,-15 15,-52 15,-81 l 0,-53 -92,-18 c -176,-34 -275,-101 -286,-193 -6,-57 15,-102 61,-130 25,-15 50,-19 112,-19 87,0 117,11 180,66 22,19 35,26 35,17 0,-7 13,-29 29,-48 26,-32 33,-35 84,-35 40,0 61,5 76,19 23,21 24,25 13,44 -7,9 -15,10 -35,3 -63,-24 -76,15 -76,229 0,85 0,167 0,182 -1,16 -14,42 -32,63 -55,63 -181,83 -289,45 z m 218,-343 c -4,-92 -37,-148 -101,-178 -80,-36 -138,-18 -156,46 -21,79 23,142 124,174 139,45 138,46 133,-42 z"
       id="path3149" />
    <path
       d="m 7641,2049 c -81,-24 -159,-106 -182,-192 -13,-50 -13,-154 1,-205 16,-60 69,-133 122,-165 128,-79 310,-21 379,120 34,70 34,216 0,290 -55,123 -193,188 -320,152 z m 175,-82 c 41,-45 56,-99 56,-208 0,-162 -44,-246 -136,-256 -89,-10 -134,28 -162,138 -20,77 -15,203 11,266 9,24 33,57 53,74 32,29 40,31 90,27 48,-4 60,-10 88,-41 z"
       id="path3151" />
    <path
       d="m 16060,2043 c -60,-22 -130,-95 -155,-164 -43,-118 -18,-268 58,-347 56,-58 102,-77 192,-77 90,0 125,14 188,74 51,48 74,90 55,102 -20,13 -23,12 -53,-32 -16,-22 -48,-52 -72,-66 -37,-21 -53,-25 -104,-21 -38,3 -69,11 -87,24 -36,26 -69,96 -78,162 l -7,52 208,0 208,0 -7,57 c -12,103 -64,186 -139,225 -55,27 -148,33 -207,11 z m 144,-37 c 47,-20 79,-69 83,-130 6,-80 4,-81 -152,-82 -153,-2 -144,-8 -124,85 12,57 38,94 83,122 37,23 65,24 110,5 z"
       id="path3153" />
    <path
       d="m 17446,2044 c -72,-23 -149,-103 -172,-180 -42,-147 -4,-297 93,-364 135,-93 300,-52 359,88 16,39 17,37 -12,46 -17,5 -23,2 -28,-18 -9,-37 -67,-93 -109,-104 -50,-14 -102,1 -143,42 -100,100 -77,383 36,441 40,21 103,19 131,-3 22,-19 22,-20 6,-60 -20,-51 -10,-88 28,-98 40,-10 71,3 85,36 19,46 5,93 -40,133 -62,57 -139,70 -234,41 z"
       id="path3155" />
    <path
       d="m 5435,2035 c -98,-53 -134,-172 -76,-253 28,-40 66,-56 196,-85 90,-21 113,-30 133,-53 25,-29 25,-71 -1,-102 -19,-23 -72,-42 -117,-42 -84,0 -145,45 -186,138 -22,48 -45,65 -58,43 -3,-5 -3,-57 1,-115 6,-101 7,-106 28,-106 13,0 29,10 38,23 l 14,22 42,-23 c 50,-29 131,-38 189,-23 47,13 106,60 128,102 19,39 18,107 -4,149 -26,49 -80,75 -202,99 -125,25 -154,42 -158,98 -3,35 1,44 28,67 31,25 53,30 115,26 61,-4 121,-55 147,-125 9,-27 17,-35 32,-33 18,3 20,10 18,63 -4,91 -13,145 -25,145 -6,0 -20,-9 -32,-20 -21,-20 -23,-20 -56,-3 -48,24 -156,29 -194,8 z"
       id="path3157" />
    <path
       d="m 8097,2043 c -32,-4 -38,-8 -35,-26 2,-17 10,-21 42,-23 28,-1 45,-8 58,-24 16,-20 18,-43 18,-225 0,-225 0,-223 -67,-229 -21,-2 -41,-4 -45,-5 -3,-1 -4,-10 -1,-21 5,-19 14,-20 179,-20 174,0 174,0 174,23 0,20 -5,22 -56,23 -30,1 -60,6 -66,12 -15,15 -10,206 8,276 9,33 24,76 34,96 19,36 82,100 100,100 5,0 6,-24 3,-54 -5,-47 -3,-55 16,-68 15,-10 32,-13 54,-9 71,15 68,142 -5,172 -43,18 -105,5 -140,-28 -31,-30 -52,-62 -80,-128 l -17,-40 0,103 -1,102 -67,-2 c -38,-1 -85,-3 -106,-5 z"
       id="path3159" />
    <path
       d="m 11084,2043 c -37,-4 -41,-6 -36,-29 4,-20 10,-24 43,-24 26,0 46,-7 59,-20 19,-19 20,-33 20,-224 0,-227 1,-224 -70,-233 -30,-4 -40,-10 -40,-24 0,-18 11,-19 164,-19 l 163,0 -4,23 c -4,20 -11,23 -45,23 -67,0 -68,4 -68,286 l 0,248 -72,-2 c -40,-1 -91,-3 -114,-5 z"
       id="path3161" />
    <path
       d="m 12158,2042 c -43,-3 -48,-5 -48,-28 0,-22 4,-24 44,-24 74,0 76,-5 78,-213 3,-275 8,-254 -62,-261 -37,-3 -46,-8 -48,-25 -3,-21 -1,-21 162,-21 l 166,0 0,23 c 0,20 -5,23 -38,23 -76,0 -72,-17 -72,274 l 0,260 -67,-2 c -38,-2 -89,-4 -115,-6 z"
       id="path3163" />
    <path
       d="m 12547,2043 c -52,-6 -47,-34 8,-45 22,-5 46,-16 53,-25 18,-24 17,-426 -1,-441 -7,-6 -30,-12 -50,-14 -31,-2 -37,-6 -37,-25 0,-23 0,-23 154,-23 l 153,0 -4,23 c -4,19 -11,23 -40,24 -19,1 -39,5 -45,11 -13,13 -12,310 2,347 35,91 149,135 215,83 47,-37 55,-72 55,-251 0,-182 -1,-185 -63,-189 -31,-3 -37,-7 -37,-25 0,-23 1,-23 149,-23 138,0 149,1 154,19 5,20 -15,31 -60,31 -12,0 -25,6 -30,13 -4,6 -10,100 -13,208 -5,194 -5,196 -33,238 -33,50 -76,71 -147,71 -66,0 -115,-21 -167,-73 -42,-40 -43,-41 -43,-15 0,14 -3,40 -6,57 -6,31 -7,31 -68,29 -33,-1 -78,-3 -99,-5 z"
       id="path3165" />
    <path
       d="m 16517,2043 c -43,-7 -31,-36 17,-44 22,-4 45,-15 53,-25 18,-25 19,-427 1,-441 -7,-6 -30,-13 -50,-17 -29,-5 -38,-12 -38,-26 0,-19 8,-20 156,-20 153,0 155,0 152,21 -2,17 -11,23 -43,26 -22,2 -43,9 -47,16 -14,22 -21,121 -15,218 4,77 10,107 29,141 62,112 199,119 244,12 10,-24 14,-81 14,-197 0,-183 -2,-188 -65,-190 -30,-1 -35,-4 -35,-24 l 0,-23 154,0 c 142,0 154,1 151,18 -2,9 -4,19 -4,23 -1,3 -17,5 -36,5 -19,0 -41,6 -47,12 -9,9 -13,68 -15,200 -3,170 -5,190 -26,231 -30,62 -64,84 -136,89 -78,6 -125,-11 -183,-66 -46,-43 -48,-44 -48,-20 0,14 -3,40 -6,57 l -6,31 -72,-1 c -39,-1 -84,-4 -99,-6 z"
       id="path3167" />
    <path
       d="m 4610,2020 c 0,-13 11,-24 33,-33 29,-13 42,-35 145,-255 61,-132 112,-246 112,-253 0,-22 -81,-158 -107,-179 -14,-11 -36,-20 -49,-20 -21,0 -24,5 -24,34 0,38 -19,59 -55,59 -37,0 -55,-21 -55,-63 0,-95 129,-116 219,-35 50,45 78,99 211,410 61,143 121,270 132,282 11,12 31,24 44,27 15,4 24,14 24,26 0,19 -7,20 -120,20 -113,0 -120,-1 -120,-20 0,-14 11,-22 40,-30 62,-17 61,-35 -11,-214 -34,-86 -66,-156 -70,-156 -9,0 -159,323 -159,343 0,19 14,28 54,37 18,3 31,12 31,20 0,12 -25,16 -137,18 -133,2 -138,2 -138,-18 z"
       id="path3169" />
    <path
       d="m 11430,2020 c 0,-12 9,-22 24,-26 14,-3 31,-13 39,-22 7,-10 65,-131 127,-270 95,-212 117,-252 132,-250 15,2 45,62 125,248 58,135 114,255 125,267 11,12 31,24 44,27 15,4 24,14 24,26 0,19 -7,20 -121,20 -118,0 -120,0 -117,-22 2,-15 13,-24 35,-30 60,-15 59,-34 -1,-175 -30,-71 -62,-146 -71,-168 l -17,-40 -39,85 c -84,178 -121,270 -116,284 3,8 24,17 46,21 31,5 41,11 41,26 0,18 -9,19 -140,19 -133,0 -140,-1 -140,-20 z"
       id="path3171" />
    <path
       d="m 17800,2023 c 0,-10 16,-27 36,-38 33,-18 46,-42 145,-254 60,-129 109,-240 109,-248 0,-28 -70,-151 -100,-177 -17,-14 -43,-26 -57,-26 -22,0 -24,3 -18,29 8,36 -15,61 -55,61 -37,0 -60,-24 -60,-61 0,-35 38,-78 72,-81 13,0 30,-2 38,-3 23,-2 72,16 100,37 50,39 91,116 211,396 67,158 127,293 133,301 6,8 26,20 44,28 21,9 32,20 32,33 0,19 -7,20 -120,20 -112,0 -120,-1 -120,-19 0,-14 10,-21 33,-26 43,-10 57,-22 57,-52 0,-27 -118,-323 -129,-323 -8,0 -161,330 -161,347 0,16 33,33 64,33 19,0 26,5 26,20 0,19 -7,20 -140,20 -127,0 -140,-2 -140,-17 z"
       id="path3173" />
  </g>
</svg>
